<svg xmlns="http://www.w3.org/2000/svg" width="800" height="500"><path fill="#f7f9f5" d="M0 0h800v500H0z"/><path fill="#fff" d="M0 0h800v40H0z"/><circle cx="20" cy="20" r="6" fill="#ff5f57"/><circle cx="40" cy="20" r="6" fill="#ffbd2e"/><circle cx="60" cy="20" r="6" fill="#28ca42"/><rect width="200" height="20" x="90" y="10" fill="#eef4ec" rx="10"/><path fill="#fff" d="M0 40h800v460H0z"/><rect width="720" height="60" x="40" y="80" fill="#f7f9f5" rx="12"/><rect width="120" height="20" x="60" y="100" fill="#0b8f62" rx="4"/><rect width="80" height="20" x="660" y="100" fill="#dfe7de" rx="4"/><rect width="220" height="140" x="40" y="180" fill="#eef4ec" rx="12"/><rect width="220" height="140" x="290" y="180" fill="#cbeedd" rx="12"/><rect width="220" height="140" x="540" y="180" fill="#eef4ec" rx="12"/><rect width="160" height="12" x="60" y="200" fill="#112215" rx="2"/><rect width="120" height="8" x="60" y="220" fill="#4d5c51" rx="2"/><rect width="80" height="20" x="60" y="280" fill="#0b8f62" rx="4"/><rect width="140" height="12" x="310" y="200" fill="#112215" rx="2"/><rect width="100" height="8" x="310" y="220" fill="#4d5c51" rx="2"/><rect width="80" height="20" x="310" y="280" fill="#2fbe84" rx="4"/><rect width="150" height="12" x="560" y="200" fill="#112215" rx="2"/><rect width="110" height="8" x="560" y="220" fill="#4d5c51" rx="2"/><rect width="80" height="20" x="560" y="280" fill="#0b8f62" rx="4"/><rect width="720" height="80" x="40" y="360" fill="#f7f9f5" rx="12"/><rect width="200" height="12" x="60" y="380" fill="#233427" rx="2"/><rect width="150" height="8" x="60" y="400" fill="#4d5c51" rx="2"/></svg>