<!-- Placeholder for flagship project screenshot -->
<svg width="800" height="500" viewBox="0 0 800 500" xmlns="http://www.w3.org/2000/svg">
  <!-- Background -->
  <rect width="800" height="500" fill="#f7f9f5"/>
  
  <!-- Browser chrome -->
  <rect width="800" height="40" fill="#ffffff"/>
  <circle cx="20" cy="20" r="6" fill="#ff5f57"/>
  <circle cx="40" cy="20" r="6" fill="#ffbd2e"/>
  <circle cx="60" cy="20" r="6" fill="#28ca42"/>
  <rect x="90" y="10" width="200" height="20" rx="10" fill="#eef4ec"/>
  
  <!-- App interface -->
  <rect x="0" y="40" width="800" height="460" fill="#ffffff"/>
  
  <!-- Header -->
  <rect x="40" y="80" width="720" height="60" fill="#f7f9f5" rx="12"/>
  <rect x="60" y="100" width="120" height="20" fill="#0b8f62" rx="4"/>
  <rect x="660" y="100" width="80" height="20" fill="#dfe7de" rx="4"/>
  
  <!-- Content grid -->
  <rect x="40" y="180" width="220" height="140" fill="#eef4ec" rx="12"/>
  <rect x="290" y="180" width="220" height="140" fill="#cbeedd" rx="12"/>
  <rect x="540" y="180" width="220" height="140" fill="#eef4ec" rx="12"/>
  
  <!-- Text lines -->
  <rect x="60" y="200" width="160" height="12" fill="#112215" rx="2"/>
  <rect x="60" y="220" width="120" height="8" fill="#4d5c51" rx="2"/>
  <rect x="60" y="280" width="80" height="20" fill="#0b8f62" rx="4"/>
  
  <rect x="310" y="200" width="140" height="12" fill="#112215" rx="2"/>
  <rect x="310" y="220" width="100" height="8" fill="#4d5c51" rx="2"/>
  <rect x="310" y="280" width="80" height="20" fill="#2fbe84" rx="4"/>
  
  <rect x="560" y="200" width="150" height="12" fill="#112215" rx="2"/>
  <rect x="560" y="220" width="110" height="8" fill="#4d5c51" rx="2"/>
  <rect x="560" y="280" width="80" height="20" fill="#0b8f62" rx="4"/>
  
  <!-- Footer -->
  <rect x="40" y="360" width="720" height="80" fill="#f7f9f5" rx="12"/>
  <rect x="60" y="380" width="200" height="12" fill="#233427" rx="2"/>
  <rect x="60" y="400" width="150" height="8" fill="#4d5c51" rx="2"/>
</svg>