<svg xmlns="http://www.w3.org/2000/svg" width="960" height="540" fill="none"><defs><linearGradient id="a" x1="120" x2="840" y1="40" y2="520" gradientUnits="userSpaceOnUse"><stop stop-color="#0B8F62"/><stop offset="1" stop-color="#154C31"/></linearGradient><linearGradient id="b" x1="0" x2="480" y1="0" y2="320" gradientUnits="userSpaceOnUse"><stop stop-color="#E6FFFA" stop-opacity=".9"/><stop offset="1" stop-color="#A7F3D0" stop-opacity=".2"/></linearGradient></defs><rect width="960" height="540" fill="url(#a)" rx="24"/><path stroke="url(#b)" stroke-linecap="round" stroke-linejoin="round" stroke-width="20" d="m120 420 120-120 80 60 120-140 120 100 120-140 80 60 80-100"/><g fill="#E6FFFA" opacity=".25"><circle cx="240" cy="300" r="18"/><circle cx="320" cy="360" r="14"/><circle cx="440" cy="220" r="20"/><circle cx="560" cy="320" r="16"/><circle cx="680" cy="180" r="20"/><circle cx="760" cy="240" r="14"/><circle cx="840" cy="140" r="18"/></g><g opacity=".6"><rect width="220" height="144" x="176" y="148" fill="rgba(11, 34, 21, 0.28)" stroke="rgba(255,255,255,0.12)" stroke-width="3" rx="24"/><rect width="148" height="12" x="212" y="188" fill="rgba(255,255,255,0.36)" rx="6"/><rect width="92" height="12" x="212" y="212" fill="rgba(255,255,255,0.2)" rx="6"/><rect width="124" height="12" x="212" y="236" fill="rgba(255,255,255,0.26)" rx="6"/></g><g opacity=".4"><rect width="240" height="140" x="560" y="88" fill="rgba(12, 143, 98, 0.42)" stroke="rgba(255,255,255,0.12)" stroke-width="3" rx="28"/><rect width="172" height="12" x="596" y="132" fill="rgba(255,255,255,0.4)" rx="6"/><rect width="112" height="12" x="596" y="160" fill="rgba(255,255,255,0.22)" rx="6"/></g></svg>