<svg width="960" height="540" viewBox="0 0 960 540" fill="none" xmlns="http://www.w3.org/2000/svg">
  <defs>
    <linearGradient id="summit-bg" x1="120" y1="40" x2="840" y2="520" gradientUnits="userSpaceOnUse">
      <stop stop-color="#0B8F62" />
      <stop offset="1" stop-color="#154C31" />
    </linearGradient>
    <linearGradient id="summit-path" x1="0" y1="0" x2="480" y2="320" gradientUnits="userSpaceOnUse">
      <stop stop-color="#E6FFFA" stop-opacity="0.9" />
      <stop offset="1" stop-color="#A7F3D0" stop-opacity="0.2" />
    </linearGradient>
  </defs>
  <rect width="960" height="540" rx="24" fill="url(#summit-bg)" />
  <path d="M120 420L240 300L320 360L440 220L560 320L680 180L760 240L840 140" stroke="url(#summit-path)" stroke-width="20" stroke-linecap="round" stroke-linejoin="round" />
  <g opacity="0.25" fill="#E6FFFA">
    <circle cx="240" cy="300" r="18" />
    <circle cx="320" cy="360" r="14" />
    <circle cx="440" cy="220" r="20" />
    <circle cx="560" cy="320" r="16" />
    <circle cx="680" cy="180" r="20" />
    <circle cx="760" cy="240" r="14" />
    <circle cx="840" cy="140" r="18" />
  </g>
  <g opacity="0.6">
    <rect x="176" y="148" width="220" height="144" rx="24" fill="rgba(11, 34, 21, 0.28)" stroke="rgba(255,255,255,0.12)" stroke-width="3" />
    <rect x="212" y="188" width="148" height="12" rx="6" fill="rgba(255,255,255,0.36)" />
    <rect x="212" y="212" width="92" height="12" rx="6" fill="rgba(255,255,255,0.2)" />
    <rect x="212" y="236" width="124" height="12" rx="6" fill="rgba(255,255,255,0.26)" />
  </g>
  <g opacity="0.4">
    <rect x="560" y="88" width="240" height="140" rx="28" fill="rgba(12, 143, 98, 0.42)" stroke="rgba(255,255,255,0.12)" stroke-width="3" />
    <rect x="596" y="132" width="172" height="12" rx="6" fill="rgba(255,255,255,0.4)" />
    <rect x="596" y="160" width="112" height="12" rx="6" fill="rgba(255,255,255,0.22)" />
  </g>
</svg>
