<svg width="360" height="240" viewBox="0 0 360 240" xmlns="http://www.w3.org/2000/svg" aria-labelledby="title" role="img">
  <title>AI Dev Agents Windy logo</title>
  <defs>
    <linearGradient id="windyBg" x1="0" y1="0" x2="1" y2="1">
      <stop offset="0%" stop-color="#0A1327"/>
      <stop offset="100%" stop-color="#151F3F"/>
    </linearGradient>
    <linearGradient id="windyStroke" x1="0" y1="0" x2="1" y2="1">
      <stop offset="0%" stop-color="#4BE7D5"/>
      <stop offset="100%" stop-color="#4A7BFF"/>
    </linearGradient>
  </defs>
  <rect width="360" height="240" rx="32" fill="url(#windyBg)"/>
  <g fill="none" stroke="url(#windyStroke)" stroke-width="10" stroke-linecap="round" stroke-linejoin="round">
    <path d="M90 150c30-40 60-60 90-60s60 20 90 60" opacity="0.35"/>
    <path d="M110 150c25-30 50-45 70-45s45 15 70 45" opacity="0.6"/>
    <path d="M130 150c20-20 40-30 60-30s40 10 60 30"/>
  </g>
  <circle cx="180" cy="130" r="28" fill="#0A1327" stroke="url(#windyStroke)" stroke-width="6"/>
  <path d="M180 112v36" stroke="#4BE7D5" stroke-width="6" stroke-linecap="round"/>
  <path d="M192 124h-24" stroke="#4BE7D5" stroke-width="6" stroke-linecap="round"/>
  <text x="180" y="198" text-anchor="middle" font-family="'Inter', sans-serif" font-size="22" fill="#9EC9FF" letter-spacing="0.25em">WINDY</text>
</svg>
