<svg width="64" height="64" viewBox="0 0 64 64" xmlns="http://www.w3.org/2000/svg" aria-labelledby="title" role="img">
  <title>Flask logo</title>
  <g fill="none" stroke="#1F1F1F" stroke-width="3.5" stroke-linecap="round" stroke-linejoin="round">
    <path d="M26 10h12"/>
    <path d="M29 10v9.2c0 .6-.2 1.1-.6 1.6l-11.2 14.4c-3.2 4.1-3.7 9.9-1.1 14.6 2.7 4.7 7.7 7.6 13.1 7.6h16.6c5.4 0 10.4-2.9 13.1-7.6 2.6-4.7 2.1-10.5-1.1-14.6L36.6 20.8c-.4-.5-.6-1-.6-1.6V10"/>
    <path d="M20.5 37.5c4.9 2.6 10.3 4 15.9 4s11-.9 16-2.6"/>
    <path d="M25.8 46.8c2.1.6 4.3.9 6.6.9 2.3 0 4.5-.3 6.6-.9"/>
  </g>
  <circle cx="32" cy="32" r="29" stroke="#E0E0E0" stroke-width="2" fill="none"/>
</svg>
