<svg width="360" height="240" viewBox="0 0 360 240" xmlns="http://www.w3.org/2000/svg" aria-labelledby="title" role="img">
  <title>Coffee Scroll podcast automation logo</title>
  <defs>
    <linearGradient id="coffeeBg" x1="0" y1="0" x2="1" y2="1">
      <stop offset="0%" stop-color="#2C190F"/>
      <stop offset="100%" stop-color="#4A2814"/>
    </linearGradient>
    <linearGradient id="steam" x1="0" y1="0" x2="0" y2="1">
      <stop offset="0%" stop-color="#F9E6D0" stop-opacity="0.8"/>
      <stop offset="100%" stop-color="#F9E6D0" stop-opacity="0"/>
    </linearGradient>
  </defs>
  <rect width="360" height="240" rx="32" fill="url(#coffeeBg)"/>
  <g fill="none" stroke="url(#steam)" stroke-width="6" stroke-linecap="round">
    <path d="M150 70c0 18 16 18 16 36s-16 18-16 36"/>
    <path d="M180 70c0 18 16 18 16 36s-16 18-16 36" opacity="0.7"/>
    <path d="M210 70c0 18 16 18 16 36s-16 18-16 36" opacity="0.5"/>
  </g>
  <path d="M112 132h136c12 0 22 10 22 22s-10 22-22 22h-8c-6 20-25 36-60 36s-54-16-60-36h-8c-12 0-22-10-22-22s10-22 22-22z" fill="#F6F0E9"/>
  <path d="M116 136h128c10 0 18 8 18 18s-8 18-18 18H116c-10 0-18-8-18-18s8-18 18-18z" fill="#FFFFFF" opacity="0.85"/>
  <text x="180" y="206" text-anchor="middle" font-family="'Inter', sans-serif" font-size="22" fill="#F9E6D0" letter-spacing="0.25em">COFFEE SCROLL</text>
</svg>
