<svg xmlns="http://www.w3.org/2000/svg" width="960" height="540" fill="none"><defs><radialGradient id="b" cx="0" cy="0" r="1" gradientTransform="rotate(45 200.662 935.117)scale(180)" gradientUnits="userSpaceOnUse"><stop stop-color="#FFE8A3"/><stop offset="1" stop-color="#FEE089" stop-opacity="0"/></radialGradient><linearGradient id="a" x1="80" x2="840" y1="40" y2="500" gradientUnits="userSpaceOnUse"><stop stop-color="#153226"/><stop offset="1" stop-color="#0B8F62"/></linearGradient></defs><rect width="960" height="540" fill="url(#a)" rx="24"/><circle cx="720" cy="132" r="160" fill="url(#b)"/><g opacity=".7" transform="translate(220 100)"><rect width="220" height="360" fill="rgba(15, 52, 36, 0.8)" stroke="rgba(255,255,255,0.12)" stroke-width="3" rx="32"/><rect width="180" height="40" x="20" y="40" fill="rgba(255,255,255,0.16)" rx="12"/><rect width="140" height="28" x="20" y="100" fill="rgba(255,255,255,0.2)" rx="10"/><rect width="100" height="16" x="20" y="150" fill="rgba(255,255,255,0.28)" rx="8"/><rect width="140" height="180" x="20" y="200" fill="rgba(12,143,98,0.35)" rx="18"/></g><g opacity=".7" transform="translate(480 160)"><rect width="260" height="220" fill="rgba(13, 75, 53, 0.72)" stroke="rgba(255,255,255,0.14)" stroke-width="3" rx="28"/><path stroke="#E6FFFA" stroke-linecap="round" stroke-linejoin="round" stroke-width="12" d="m40 160 56-40 36 28 52-52 28 24"/><circle cx="80" cy="72" r="24" fill="rgba(255,255,255,0.24)"/><circle cx="144" cy="96" r="16" fill="rgba(255,255,255,0.18)"/></g></svg>