<svg width="960" height="540" viewBox="0 0 960 540" fill="none" xmlns="http://www.w3.org/2000/svg">
  <defs>
    <linearGradient id="fieldnote-bg" x1="80" y1="40" x2="840" y2="500" gradientUnits="userSpaceOnUse">
      <stop stop-color="#153226" />
      <stop offset="1" stop-color="#0B8F62" />
    </linearGradient>
    <radialGradient id="fieldnote-sun" cx="0" cy="0" r="1" gradientUnits="userSpaceOnUse" gradientTransform="translate(720 132) rotate(45) scale(180)">
      <stop stop-color="#FFE8A3" />
      <stop offset="1" stop-color="#FEE089" stop-opacity="0" />
    </radialGradient>
  </defs>
  <rect width="960" height="540" rx="24" fill="url(#fieldnote-bg)" />
  <circle cx="720" cy="132" r="160" fill="url(#fieldnote-sun)" />
  <g transform="translate(220 100)" opacity="0.7">
    <rect x="0" y="0" width="220" height="360" rx="32" fill="rgba(15, 52, 36, 0.8)" stroke="rgba(255,255,255,0.12)" stroke-width="3" />
    <rect x="20" y="40" width="180" height="40" rx="12" fill="rgba(255,255,255,0.16)" />
    <rect x="20" y="100" width="140" height="28" rx="10" fill="rgba(255,255,255,0.2)" />
    <rect x="20" y="150" width="100" height="16" rx="8" fill="rgba(255,255,255,0.28)" />
    <rect x="20" y="200" width="140" height="180" rx="18" fill="rgba(12,143,98,0.35)" />
  </g>
  <g transform="translate(480 160)" opacity="0.7">
    <rect x="0" y="0" width="260" height="220" rx="28" fill="rgba(13, 75, 53, 0.72)" stroke="rgba(255,255,255,0.14)" stroke-width="3" />
    <path d="M40 160L96 120L132 148L184 96L212 120" stroke="#E6FFFA" stroke-width="12" stroke-linecap="round" stroke-linejoin="round" />
    <circle cx="80" cy="72" r="24" fill="rgba(255,255,255,0.24)" />
    <circle cx="144" cy="96" r="16" fill="rgba(255,255,255,0.18)" />
  </g>
</svg>
