<svg xmlns="http://www.w3.org/2000/svg" width="960" height="540" fill="none"><defs><linearGradient id="a" x1="0" x2="960" y1="0" y2="540" gradientUnits="userSpaceOnUse"><stop stop-color="#0B8F62"/><stop offset="1" stop-color="#0C3355"/></linearGradient><linearGradient id="b" x1="0" x2="0" y1="0" y2="540" gradientUnits="userSpaceOnUse"><stop stop-color="rgba(255,255,255,0.38)"/><stop offset="1" stop-color="rgba(255,255,255,0.08)"/></linearGradient></defs><rect width="960" height="540" fill="url(#a)" rx="24"/><path stroke="url(#b)" stroke-width="2" d="M80 468 880 72M120 468 920 72M160 468 960 84M200 468l760-348" opacity=".4"/><g opacity=".55"><rect width="320" height="212" x="140" y="164" fill="rgba(12, 51, 85, 0.45)" stroke="rgba(255,255,255,0.18)" stroke-width="2" rx="18"/><rect width="320" height="180" x="500" y="196" fill="rgba(12, 143, 98, 0.45)" stroke="rgba(255,255,255,0.18)" stroke-width="2" rx="18"/><path stroke="rgba(255,255,255,0.45)" stroke-linecap="round" stroke-width="8" d="M172 260h256"/><path stroke="rgba(255,255,255,0.28)" stroke-linecap="round" stroke-width="8" d="M172 300h176"/><circle cx="620" cy="278" r="64" fill="rgba(255,255,255,0.14)" stroke="rgba(255,255,255,0.28)" stroke-width="10"/><path stroke="#E6FFFA" stroke-linecap="round" stroke-linejoin="round" stroke-width="10" d="m580 320 24-24 24 16 24-36 16 16 24-40"/></g></svg>