<svg width="64" height="64" viewBox="0 0 64 64" xmlns="http://www.w3.org/2000/svg" aria-labelledby="title" role="img">
  <title>OpenAI logo</title>
  <g fill="none" stroke="#5336B4" stroke-width="4" stroke-linecap="round" stroke-linejoin="round">
    <path d="M32 10.5c3.1-5.5 11-5.5 14.1 0l3.9 6.8c3.1 5.5 0 12.5-6.9 13.6"/>
    <path d="M49.1 21.1c5.8 1.9 8.6 8.4 5.5 13.9l-3.9 6.8c-3.1 5.5-10.9 7.4-16.4 4.3"/>
    <path d="M43.5 46.1c-.6 6-5.9 10.7-11.9 10.7h-7.9c-6.3 0-11.4-5.1-11.4-11.4v-7.9c0-6 4.7-11.3 10.7-11.9"/>
    <path d="M20.5 26.6c-5.8-1.9-8.6-8.4-5.5-13.9l3.9-6.8c3.1-5.5 10.9-7.4 16.4-4.3"/>
    <path d="M15.1 17.9c.6-6 5.9-10.7 11.9-10.7h7.9c6.3 0 11.4 5.1 11.4 11.4v7.9c0 6-4.7 11.3-10.7 11.9"/>
    <path d="M43.5 29.4c5.8 1.9 8.6 8.4 5.5 13.9l-3.9 6.8c-3.1 5.5-10.9 7.4-16.4 4.3"/>
    <path d="M20.5 37.4c-5.8-1.9-8.6-8.4-5.5-13.9l3.9-6.8c3.1-5.5 10.9-7.4 16.4-4.3"/>
  </g>
</svg>
